<mxfile host="Electron" agent="Mozilla/5.0 (Windows NT 10.0; Win64; x64) AppleWebKit/537.36 (KHTML, like Gecko) draw.io/28.1.2 Chrome/138.0.7204.243 Electron/37.4.0 Safari/537.36" version="28.1.2">
  <diagram name="Seite-1" id="g3KuEs0CICtmWK0__jnz">
    <mxGraphModel dx="1090" dy="593" grid="1" gridSize="10" guides="1" tooltips="1" connect="1" arrows="1" fold="1" page="1" pageScale="1" pageWidth="827" pageHeight="1169" math="0" shadow="0">
      <root>
        <mxCell id="0" />
        <mxCell id="1" parent="0" />
        <mxCell id="5pUGUCCcGn_5Jv6LQFDV-5" style="edgeStyle=orthogonalEdgeStyle;rounded=0;orthogonalLoop=1;jettySize=auto;html=1;exitX=0.5;exitY=1;exitDx=0;exitDy=0;entryX=0.5;entryY=0;entryDx=0;entryDy=0;" edge="1" parent="1" source="5pUGUCCcGn_5Jv6LQFDV-1" target="5pUGUCCcGn_5Jv6LQFDV-3">
          <mxGeometry relative="1" as="geometry" />
        </mxCell>
        <mxCell id="5pUGUCCcGn_5Jv6LQFDV-1" value="START" style="ellipse;whiteSpace=wrap;html=1;aspect=fixed;" vertex="1" parent="1">
          <mxGeometry x="300" y="50" width="80" height="80" as="geometry" />
        </mxCell>
        <mxCell id="5pUGUCCcGn_5Jv6LQFDV-2" value="END" style="ellipse;whiteSpace=wrap;html=1;aspect=fixed;" vertex="1" parent="1">
          <mxGeometry x="300" y="410" width="80" height="80" as="geometry" />
        </mxCell>
        <mxCell id="5pUGUCCcGn_5Jv6LQFDV-6" style="edgeStyle=orthogonalEdgeStyle;rounded=0;orthogonalLoop=1;jettySize=auto;html=1;exitX=0.5;exitY=1;exitDx=0;exitDy=0;entryX=0.5;entryY=0;entryDx=0;entryDy=0;" edge="1" parent="1" source="5pUGUCCcGn_5Jv6LQFDV-3" target="5pUGUCCcGn_5Jv6LQFDV-2">
          <mxGeometry relative="1" as="geometry" />
        </mxCell>
        <mxCell id="5pUGUCCcGn_5Jv6LQFDV-3" value="print: Hello!" style="rounded=0;whiteSpace=wrap;html=1;" vertex="1" parent="1">
          <mxGeometry x="280" y="240" width="120" height="60" as="geometry" />
        </mxCell>
        <mxCell id="5pUGUCCcGn_5Jv6LQFDV-4" value="this process shall be written in Python!" style="shape=card;whiteSpace=wrap;html=1;" vertex="1" parent="1">
          <mxGeometry x="60" y="220" width="80" height="100" as="geometry" />
        </mxCell>
        <mxCell id="5pUGUCCcGn_5Jv6LQFDV-7" value="" style="shape=note;whiteSpace=wrap;html=1;backgroundOutline=1;darkOpacity=0.05;" vertex="1" parent="1">
          <mxGeometry x="570" y="150" width="220" height="280" as="geometry" />
        </mxCell>
        <mxCell id="5pUGUCCcGn_5Jv6LQFDV-8" value="&lt;h1 style=&quot;margin-top: 0px;&quot;&gt;Pseudo Code&lt;/h1&gt;&lt;p&gt;START&lt;br&gt;&lt;span style=&quot;white-space: pre;&quot;&gt;&#x9;&lt;/span&gt;PRINT &quot;Hello!&quot;&lt;br&gt;END&lt;/p&gt;" style="text;html=1;whiteSpace=wrap;overflow=hidden;rounded=0;" vertex="1" parent="1">
          <mxGeometry x="600" y="180" width="180" height="120" as="geometry" />
        </mxCell>
      </root>
    </mxGraphModel>
  </diagram>
</mxfile>
